<svg width="375" height="377" viewBox="0 0 375 377" fill="none" xmlns="http://www.w3.org/2000/svg">
<rect width="375" height="377" fill="#3F3F3F"/>
<rect x="24.5" y="34.8086" width="326" height="318.692" fill="#3F3F3F" stroke="#292929"/>
<rect x="44.3789" y="234.879" width="49.9159" height="76.3595" fill="url(#paint0_linear)"/>
<rect x="103.461" y="234.879" width="49.9159" height="76.3595" fill="url(#paint1_linear)"/>
<rect x="162.551" y="234.879" width="49.9159" height="76.3595" fill="url(#paint2_linear)"/>
<rect x="221.629" y="234.879" width="49.9159" height="76.3595" fill="url(#paint3_linear)"/>
<rect x="280.711" y="234.879" width="49.9159" height="76.3595" fill="url(#paint4_linear)"/>
<path fill-rule="evenodd" clip-rule="evenodd" d="M94.2948 142.229H44.3789V218.588H94.2948V142.229ZM71.8836 172.772C74.6966 172.772 76.977 170.493 76.977 167.682C76.977 164.87 74.6966 162.591 71.8836 162.591C69.0705 162.591 66.7901 164.87 66.7901 167.682C66.7901 170.493 69.0705 172.772 71.8836 172.772ZM61.1873 172.772H71.8836H78.1167C79.2212 172.772 80.1167 173.668 80.1167 174.772V177.124L87.618 173.723V186.067L80.1167 182.666V185.026C80.1167 186.131 79.2212 187.026 78.1167 187.026H73.7155L81.5041 194.81L79.3822 196.931L69.4717 187.026H64.6L54.6894 196.931L52.5675 194.81L60.3562 187.026H54.612C53.5074 187.026 52.612 186.131 52.612 185.026V174.772C52.612 173.668 53.5074 172.772 54.612 172.772H61.1873ZM61.1873 172.772C63.1564 172.772 64.7527 171.177 64.7527 169.209C64.7527 167.241 63.1564 165.645 61.1873 165.645C59.2182 165.645 57.6219 167.241 57.6219 169.209C57.6219 171.177 59.2182 172.772 61.1873 172.772Z" fill="#292929"/>
<ellipse cx="61.1882" cy="169.209" rx="1.52804" ry="1.52719" fill="#E1A103"/>
<ellipse cx="74.9406" cy="167.681" rx="1.01869" ry="1.01813" fill="#E1A103"/>
<ellipse cx="70.8663" cy="164.628" rx="1.01869" ry="1.01813" fill="#E1A103"/>
<ellipse cx="69.8468" cy="169.718" rx="1.01869" ry="1.01813" fill="#E1A103"/>
<path fill-rule="evenodd" clip-rule="evenodd" d="M153.377 142.229H103.461V218.588H153.377V142.229ZM130.966 172.772C133.779 172.772 136.059 170.493 136.059 167.682C136.059 164.87 133.779 162.591 130.966 162.591C128.153 162.591 125.872 164.87 125.872 167.682C125.872 170.493 128.153 172.772 130.966 172.772ZM120.269 172.772H130.966H137.199C138.303 172.772 139.199 173.668 139.199 174.772V177.124L146.7 173.723V186.067L139.199 182.666V185.026C139.199 186.131 138.303 187.026 137.199 187.026H132.798L140.586 194.81L138.464 196.931L128.554 187.026H123.682L113.771 196.931L111.65 194.81L119.438 187.026H113.694C112.589 187.026 111.694 186.131 111.694 185.026V174.772C111.694 173.668 112.589 172.772 113.694 172.772H120.269ZM120.269 172.772C122.238 172.772 123.835 171.177 123.835 169.209C123.835 167.241 122.238 165.645 120.269 165.645C118.3 165.645 116.704 167.241 116.704 169.209C116.704 171.177 118.3 172.772 120.269 172.772Z" fill="#292929"/>
<ellipse cx="120.27" cy="169.209" rx="1.52804" ry="1.52719" fill="#E1A103"/>
<ellipse cx="134.023" cy="167.681" rx="1.01869" ry="1.01813" fill="#E1A103"/>
<ellipse cx="129.948" cy="164.628" rx="1.01869" ry="1.01813" fill="#E1A103"/>
<ellipse cx="128.929" cy="169.718" rx="1.01869" ry="1.01813" fill="#E1A103"/>
<path fill-rule="evenodd" clip-rule="evenodd" d="M212.467 142.229H162.551V218.588H212.467V142.229ZM190.055 172.772C192.868 172.772 195.149 170.493 195.149 167.682C195.149 164.87 192.868 162.591 190.055 162.591C187.242 162.591 184.962 164.87 184.962 167.682C184.962 170.493 187.242 172.772 190.055 172.772ZM179.359 172.772H190.055H196.289C197.393 172.772 198.289 173.668 198.289 174.772V177.124L205.79 173.723V186.067L198.289 182.666V185.026C198.289 186.131 197.393 187.026 196.289 187.026H191.887L199.676 194.81L197.554 196.931L187.644 187.026H182.772L172.861 196.931L170.739 194.81L178.528 187.026H172.784C171.679 187.026 170.784 186.131 170.784 185.026V174.772C170.784 173.668 171.679 172.772 172.784 172.772H179.359ZM179.359 172.772C181.328 172.772 182.925 171.177 182.925 169.209C182.925 167.241 181.328 165.645 179.359 165.645C177.39 165.645 175.794 167.241 175.794 169.209C175.794 171.177 177.39 172.772 179.359 172.772Z" fill="#292929"/>
<ellipse cx="179.36" cy="169.209" rx="1.52804" ry="1.52719" fill="#E1A103"/>
<ellipse cx="193.112" cy="167.681" rx="1.01869" ry="1.01813" fill="#E1A103"/>
<ellipse cx="189.038" cy="164.628" rx="1.01869" ry="1.01813" fill="#E1A103"/>
<ellipse cx="188.019" cy="169.718" rx="1.01869" ry="1.01813" fill="#E1A103"/>
<path fill-rule="evenodd" clip-rule="evenodd" d="M271.545 142.229H221.629V218.588H271.545V142.229ZM249.134 172.772C251.947 172.772 254.227 170.493 254.227 167.682C254.227 164.87 251.947 162.591 249.134 162.591C246.321 162.591 244.04 164.87 244.04 167.682C244.04 170.493 246.321 172.772 249.134 172.772ZM238.437 172.772H249.134H255.367C256.471 172.772 257.367 173.668 257.367 174.772V177.124L264.868 173.723V186.067L257.367 182.666V185.026C257.367 186.131 256.471 187.026 255.367 187.026H250.966L258.754 194.81L256.632 196.931L246.722 187.026H241.85L231.939 196.931L229.817 194.81L237.606 187.026H231.862C230.757 187.026 229.862 186.131 229.862 185.026V174.772C229.862 173.668 230.757 172.772 231.862 172.772H238.437ZM238.437 172.772C240.406 172.772 242.003 171.177 242.003 169.209C242.003 167.241 240.406 165.645 238.437 165.645C236.468 165.645 234.872 167.241 234.872 169.209C234.872 171.177 236.468 172.772 238.437 172.772Z" fill="#292929"/>
<ellipse cx="238.438" cy="169.209" rx="1.52804" ry="1.52719" fill="#E1A103"/>
<ellipse cx="252.191" cy="167.681" rx="1.01869" ry="1.01813" fill="#E1A103"/>
<ellipse cx="248.116" cy="164.628" rx="1.01869" ry="1.01813" fill="#E1A103"/>
<ellipse cx="247.097" cy="169.718" rx="1.01869" ry="1.01813" fill="#E1A103"/>
<path fill-rule="evenodd" clip-rule="evenodd" d="M330.627 142.229H280.711V218.588H330.627V142.229ZM308.216 172.772C311.029 172.772 313.309 170.493 313.309 167.682C313.309 164.87 311.029 162.591 308.216 162.591C305.403 162.591 303.122 164.87 303.122 167.682C303.122 170.493 305.403 172.772 308.216 172.772ZM297.519 172.772H308.216H314.449C315.553 172.772 316.449 173.668 316.449 174.772V177.124L323.95 173.723V186.067L316.449 182.666V185.026C316.449 186.131 315.553 187.026 314.449 187.026H310.048L317.836 194.81L315.714 196.931L305.804 187.026H300.932L291.021 196.931L288.9 194.81L296.688 187.026H290.944C289.839 187.026 288.944 186.131 288.944 185.026V174.772C288.944 173.668 289.839 172.772 290.944 172.772H297.519ZM297.519 172.772C299.488 172.772 301.085 171.177 301.085 169.209C301.085 167.241 299.488 165.645 297.519 165.645C295.55 165.645 293.954 167.241 293.954 169.209C293.954 171.177 295.55 172.772 297.519 172.772Z" fill="#292929"/>
<ellipse cx="297.52" cy="169.209" rx="1.52804" ry="1.52719" fill="#E1A103"/>
<ellipse cx="311.273" cy="167.681" rx="1.01869" ry="1.01813" fill="#E1A103"/>
<ellipse cx="307.198" cy="164.628" rx="1.01869" ry="1.01813" fill="#E1A103"/>
<ellipse cx="306.179" cy="169.718" rx="1.01869" ry="1.01813" fill="#E1A103"/>
<rect x="330.621" y="125.938" width="49.9159" height="76.3595" transform="rotate(180 330.621 125.938)" fill="url(#paint5_linear)"/>
<rect x="271.539" y="125.938" width="49.9159" height="76.3595" transform="rotate(180 271.539 125.938)" fill="url(#paint6_linear)"/>
<rect x="212.453" y="125.938" width="49.9159" height="76.3595" transform="rotate(180 212.453 125.938)" fill="url(#paint7_linear)"/>
<rect x="153.371" y="125.938" width="49.9159" height="76.3595" transform="rotate(180 153.371 125.938)" fill="url(#paint8_linear)"/>
<rect x="94.2852" y="125.938" width="49.9159" height="76.3595" transform="rotate(180 94.2852 125.938)" fill="url(#paint9_linear)"/>
<rect x="24" y="17" width="327" height="22.3988" fill="#292929"/>
<path d="M46.3471 35.0361V25.5981H44.5661V24.5061H49.5451V25.5981H47.8161V35.0361H46.3471ZM51.4572 35.0361V27.5221H52.8482V28.5881C53.1255 28.1288 53.4029 27.8211 53.6802 27.6651C53.9575 27.5091 54.2349 27.4311 54.5122 27.4311C54.5469 27.4311 54.5772 27.4311 54.6032 27.4311C54.6379 27.4311 54.6812 27.4355 54.7332 27.4441V28.9781C54.6292 28.9348 54.5079 28.9001 54.3692 28.8741C54.2392 28.8395 54.1049 28.8221 53.9662 28.8221C53.7495 28.8221 53.5502 28.8741 53.3682 28.9781C53.1949 29.0735 53.0215 29.2641 52.8482 29.5501V35.0361H51.4572ZM58.65 35.1401C58.0606 35.1401 57.6056 35.0275 57.285 34.8021C56.9643 34.5681 56.739 34.2301 56.609 33.7881C56.4876 33.3375 56.427 32.7871 56.427 32.1371V30.4211C56.427 29.7538 56.492 29.1991 56.622 28.7571C56.752 28.3151 56.9773 27.9815 57.298 27.7561C57.6273 27.5308 58.078 27.4181 58.65 27.4181C59.2826 27.4181 59.7463 27.5481 60.041 27.8081C60.3443 28.0681 60.5436 28.4451 60.639 28.9391C60.7343 29.4245 60.782 30.0095 60.782 30.6941V31.3051H57.818V32.8131C57.818 33.1165 57.844 33.3635 57.896 33.5541C57.9566 33.7448 58.0476 33.8878 58.169 33.9831C58.299 34.0698 58.4636 34.1131 58.663 34.1131C58.871 34.1131 59.027 34.0655 59.131 33.9701C59.2436 33.8661 59.3173 33.7231 59.352 33.5411C59.3953 33.3505 59.417 33.1295 59.417 32.8781V32.4231H60.769V32.7091C60.769 33.4631 60.6086 34.0568 60.288 34.4901C59.9673 34.9235 59.4213 35.1401 58.65 35.1401ZM57.818 30.5511H59.417V29.8751C59.417 29.5631 59.3996 29.3031 59.365 29.0951C59.3303 28.8785 59.2566 28.7181 59.144 28.6141C59.04 28.5015 58.871 28.4451 58.637 28.4451C58.4116 28.4451 58.2383 28.4971 58.117 28.6011C58.0043 28.7051 57.9263 28.8828 57.883 29.1341C57.8396 29.3768 57.818 29.7148 57.818 30.1481V30.5511ZM63.0166 35.0361V27.5221H64.4076V28.2631C64.659 28.0291 64.9363 27.8298 65.2396 27.6651C65.543 27.5005 65.8766 27.4181 66.2406 27.4181C66.544 27.4181 66.7736 27.4961 66.9296 27.6521C67.0943 27.8081 67.207 28.0031 67.2676 28.2371C67.337 28.4711 67.3716 28.7095 67.3716 28.9521V35.0361H65.9806V29.3551C65.9806 29.0865 65.9416 28.8785 65.8636 28.7311C65.7856 28.5838 65.6253 28.5101 65.3826 28.5101C65.2266 28.5101 65.062 28.5578 64.8886 28.6531C64.724 28.7398 64.5636 28.8481 64.4076 28.9781V35.0361H63.0166ZM71.4465 35.1401C70.8139 35.1401 70.3415 34.9105 70.0295 34.4511C69.7175 33.9831 69.5615 33.1945 69.5615 32.0851V30.6291C69.5615 30.0571 69.6092 29.5285 69.7045 29.0431C69.7999 28.5491 69.9775 28.1548 70.2375 27.8601C70.5062 27.5655 70.8962 27.4181 71.4075 27.4181C71.6589 27.4181 71.8885 27.4745 72.0965 27.5871C72.3045 27.6998 72.4909 27.8385 72.6555 28.0031V24.5061H74.0465V35.0361H72.6555V34.5551C72.4909 34.7285 72.3089 34.8715 72.1095 34.9841C71.9189 35.0881 71.6979 35.1401 71.4465 35.1401ZM71.7975 34.0481C71.9275 34.0481 72.0662 34.0265 72.2135 33.9831C72.3609 33.9311 72.5082 33.8575 72.6555 33.7621V28.8351C72.5342 28.7485 72.3999 28.6748 72.2525 28.6141C72.1052 28.5448 71.9449 28.5101 71.7715 28.5101C71.4509 28.5101 71.2342 28.6661 71.1215 28.9781C71.0089 29.2815 70.9525 29.6498 70.9525 30.0831V32.2021C70.9525 32.5488 70.9699 32.8651 71.0045 33.1511C71.0479 33.4285 71.1302 33.6495 71.2515 33.8141C71.3729 33.9701 71.5549 34.0481 71.7975 34.0481ZM76.5215 35.0361V27.5221H77.9125V35.0361H76.5215ZM76.5215 26.4041V24.9481H77.9125V26.4041H76.5215ZM80.3762 35.0361V27.5221H81.7672V28.2631C82.0186 28.0291 82.2959 27.8298 82.5992 27.6651C82.9026 27.5005 83.2362 27.4181 83.6002 27.4181C83.9036 27.4181 84.1332 27.4961 84.2892 27.6521C84.4539 27.8081 84.5666 28.0031 84.6272 28.2371C84.6966 28.4711 84.7312 28.7095 84.7312 28.9521V35.0361H83.3402V29.3551C83.3402 29.0865 83.3012 28.8785 83.2232 28.7311C83.1452 28.5838 82.9849 28.5101 82.7422 28.5101C82.5862 28.5101 82.4216 28.5578 82.2482 28.6531C82.0836 28.7398 81.9232 28.8481 81.7672 28.9781V35.0361H80.3762ZM89.0141 37.3631C88.5634 37.3631 88.1561 37.3155 87.7921 37.2201C87.4281 37.1248 87.1421 36.9731 86.9341 36.7651C86.7261 36.5571 86.6221 36.2841 86.6221 35.9461C86.6221 35.7035 86.6741 35.4911 86.7781 35.3091C86.8821 35.1271 87.0164 34.9711 87.1811 34.8411C87.3458 34.7025 87.5191 34.5898 87.7011 34.5031C87.4584 34.4338 87.2764 34.3255 87.1551 34.1781C87.0338 34.0221 86.9731 33.8618 86.9731 33.6971C86.9731 33.4198 87.0468 33.1815 87.1941 32.9821C87.3414 32.7828 87.5451 32.5661 87.8051 32.3321C87.5191 32.1155 87.3024 31.8381 87.1551 31.5001C87.0078 31.1621 86.9341 30.6941 86.9341 30.0961C86.9341 29.5068 87.0121 29.0171 87.1681 28.6271C87.3328 28.2285 87.5711 27.9295 87.8831 27.7301C88.2038 27.5221 88.5938 27.4181 89.0531 27.4181C89.4604 27.4181 89.7854 27.4875 90.0281 27.6261C90.2794 27.7648 90.4701 27.9728 90.6001 28.2501C90.6434 28.1808 90.7604 28.0638 90.9511 27.8991C91.1418 27.7258 91.3628 27.5828 91.6141 27.4701L91.8221 27.3791L92.1731 28.2761C92.0604 28.2935 91.9088 28.3368 91.7181 28.4061C91.5361 28.4668 91.3628 28.5318 91.1981 28.6011C91.0421 28.6618 90.9424 28.7138 90.8991 28.7571C90.9598 28.9045 91.0118 29.1168 91.0551 29.3941C91.1071 29.6715 91.1331 29.9185 91.1331 30.1351C91.1331 30.6465 91.0681 31.0971 90.9381 31.4871C90.8081 31.8771 90.5914 32.1848 90.2881 32.4101C89.9934 32.6268 89.5818 32.7351 89.0531 32.7351C88.9404 32.7351 88.8191 32.7265 88.6891 32.7091C88.5591 32.6918 88.4421 32.6701 88.3381 32.6441C88.2861 32.7221 88.2298 32.8131 88.1691 32.9171C88.1171 33.0211 88.0911 33.1208 88.0911 33.2161C88.0911 33.3115 88.1388 33.3895 88.2341 33.4501C88.3381 33.5021 88.4984 33.5368 88.7151 33.5541L89.8851 33.6581C90.4744 33.7101 90.9121 33.8878 91.1981 34.1911C91.4841 34.4945 91.6271 34.9278 91.6271 35.4911C91.6271 35.8985 91.5318 36.2408 91.3411 36.5181C91.1504 36.8041 90.8601 37.0165 90.4701 37.1551C90.0888 37.2938 89.6034 37.3631 89.0141 37.3631ZM89.1181 36.2711C89.6121 36.2711 89.9761 36.2105 90.2101 36.0891C90.4441 35.9765 90.5611 35.7901 90.5611 35.5301C90.5611 35.3741 90.5308 35.2441 90.4701 35.1401C90.4181 35.0361 90.3184 34.9538 90.1711 34.8931C90.0238 34.8325 89.8114 34.7891 89.5341 34.7631L88.3511 34.6591C88.2558 34.7545 88.1648 34.8498 88.0781 34.9451C87.9914 35.0405 87.9221 35.1401 87.8701 35.2441C87.8181 35.3568 87.7921 35.4738 87.7921 35.5951C87.7921 35.8205 87.8874 35.9895 88.0781 36.1021C88.2688 36.2148 88.6154 36.2711 89.1181 36.2711ZM89.0531 31.7601C89.2524 31.7601 89.4084 31.7255 89.5211 31.6561C89.6424 31.5781 89.7334 31.4698 89.7941 31.3311C89.8548 31.1838 89.8938 31.0061 89.9111 30.7981C89.9371 30.5901 89.9501 30.3561 89.9501 30.0961C89.9501 29.8361 89.9371 29.6021 89.9111 29.3941C89.8938 29.1775 89.8548 28.9955 89.7941 28.8481C89.7421 28.6921 89.6554 28.5751 89.5341 28.4971C89.4214 28.4191 89.2654 28.3801 89.0661 28.3801C88.8754 28.3801 88.7151 28.4191 88.5851 28.4971C88.4638 28.5751 88.3728 28.6878 88.3121 28.8351C88.2514 28.9738 88.2081 29.1515 88.1821 29.3681C88.1561 29.5761 88.1431 29.8188 88.1431 30.0961C88.1431 30.3301 88.1518 30.5511 88.1691 30.7591C88.1951 30.9585 88.2384 31.1318 88.2991 31.2791C88.3684 31.4265 88.4638 31.5435 88.5851 31.6301C88.7064 31.7168 88.8624 31.7601 89.0531 31.7601Z" fill="#9A9A98"/>
<line x1="321.457" y1="25.6621" x2="330.625" y2="25.6621" stroke="#E1A103"/>
<line x1="321.457" y1="28.7168" x2="330.625" y2="28.7168" stroke="#E1A103"/>
<line x1="321.457" y1="31.7705" x2="330.625" y2="31.7705" stroke="#E1A103"/>
<defs>
<linearGradient id="paint0_linear" x1="69.3368" y1="234.879" x2="69.3368" y2="311.238" gradientUnits="userSpaceOnUse">
<stop stop-color="#292929"/>
<stop offset="1" stop-color="#3F3F3F"/>
</linearGradient>
<linearGradient id="paint1_linear" x1="128.419" y1="234.879" x2="128.419" y2="311.238" gradientUnits="userSpaceOnUse">
<stop stop-color="#292929"/>
<stop offset="1" stop-color="#3F3F3F"/>
</linearGradient>
<linearGradient id="paint2_linear" x1="187.509" y1="234.879" x2="187.509" y2="311.238" gradientUnits="userSpaceOnUse">
<stop stop-color="#292929"/>
<stop offset="1" stop-color="#3F3F3F"/>
</linearGradient>
<linearGradient id="paint3_linear" x1="246.587" y1="234.879" x2="246.587" y2="311.238" gradientUnits="userSpaceOnUse">
<stop stop-color="#292929"/>
<stop offset="1" stop-color="#3F3F3F"/>
</linearGradient>
<linearGradient id="paint4_linear" x1="305.669" y1="234.879" x2="305.669" y2="311.238" gradientUnits="userSpaceOnUse">
<stop stop-color="#292929"/>
<stop offset="1" stop-color="#3F3F3F"/>
</linearGradient>
<linearGradient id="paint5_linear" x1="355.579" y1="125.938" x2="355.579" y2="202.298" gradientUnits="userSpaceOnUse">
<stop stop-color="#292929"/>
<stop offset="1" stop-color="#3F3F3F"/>
</linearGradient>
<linearGradient id="paint6_linear" x1="296.497" y1="125.938" x2="296.497" y2="202.298" gradientUnits="userSpaceOnUse">
<stop stop-color="#292929"/>
<stop offset="1" stop-color="#3F3F3F"/>
</linearGradient>
<linearGradient id="paint7_linear" x1="237.411" y1="125.938" x2="237.411" y2="202.298" gradientUnits="userSpaceOnUse">
<stop stop-color="#292929"/>
<stop offset="1" stop-color="#3F3F3F"/>
</linearGradient>
<linearGradient id="paint8_linear" x1="178.329" y1="125.938" x2="178.329" y2="202.298" gradientUnits="userSpaceOnUse">
<stop stop-color="#292929"/>
<stop offset="1" stop-color="#3F3F3F"/>
</linearGradient>
<linearGradient id="paint9_linear" x1="119.243" y1="125.938" x2="119.243" y2="202.298" gradientUnits="userSpaceOnUse">
<stop stop-color="#292929"/>
<stop offset="1" stop-color="#3F3F3F"/>
</linearGradient>
</defs>
</svg>
